<svg width="52" height="52" viewBox="0 0 52 52" fill="none" xmlns="http://www.w3.org/2000/svg">
<path d="M27.7634 49.4828C26.7119 50.2467 25.2881 50.2467 24.2366 49.4828L4.21146 34.9336C3.16 34.1697 2.72002 32.8156 3.12164 31.5795L10.7706 8.03851C11.1722 6.80244 12.3241 5.96556 13.6238 5.96556L38.3762 5.96556C39.6759 5.96556 40.8278 6.80244 41.2294 8.03851L48.8784 31.5795C49.28 32.8156 48.84 34.1697 47.7885 34.9336L27.7634 49.4828Z" fill="#FFA500" fill-opacity="0.2" stroke="#FFA500" stroke-width="2"/>
<g clip-path="url(#clip0_729_1009)">
<path fill-rule="evenodd" clip-rule="evenodd" d="M22.75 18.6875C22.75 18.041 23.0068 17.421 23.4639 16.9639C23.921 16.5068 24.541 16.25 25.1875 16.25H26.8125C27.459 16.25 28.079 16.5068 28.5361 16.9639C28.9932 17.421 29.25 18.041 29.25 18.6875V20.3125C29.25 20.959 28.9932 21.579 28.5361 22.0361C28.079 22.4932 27.459 22.75 26.8125 22.75V24.375H30.875C31.0905 24.375 31.2972 24.4606 31.4495 24.613C31.6019 24.7653 31.6875 24.972 31.6875 25.1875V26.8125C31.6875 27.028 31.6019 27.2347 31.4495 27.387C31.2972 27.5394 31.0905 27.625 30.875 27.625C30.6595 27.625 30.4528 27.5394 30.3005 27.387C30.1481 27.2347 30.0625 27.028 30.0625 26.8125V26H21.9375V26.8125C21.9375 27.028 21.8519 27.2347 21.6995 27.387C21.5472 27.5394 21.3405 27.625 21.125 27.625C20.9095 27.625 20.7028 27.5394 20.5505 27.387C20.3981 27.2347 20.3125 27.028 20.3125 26.8125V25.1875C20.3125 24.972 20.3981 24.7653 20.5505 24.613C20.7028 24.4606 20.9095 24.375 21.125 24.375H25.1875V22.75C24.541 22.75 23.921 22.4932 23.4639 22.0361C23.0068 21.579 22.75 20.959 22.75 20.3125V18.6875ZM26.8125 21.125C27.028 21.125 27.2347 21.0394 27.387 20.887C27.5394 20.7347 27.625 20.528 27.625 20.3125V18.6875C27.625 18.472 27.5394 18.2653 27.387 18.113C27.2347 17.9606 27.028 17.875 26.8125 17.875H25.1875C24.972 17.875 24.7653 17.9606 24.613 18.113C24.4606 18.2653 24.375 18.472 24.375 18.6875V20.3125C24.375 20.528 24.4606 20.7347 24.613 20.887C24.7653 21.0394 24.972 21.125 25.1875 21.125H26.8125ZM17.875 31.6875C17.875 31.041 18.1318 30.421 18.5889 29.9639C19.046 29.5068 19.666 29.25 20.3125 29.25H21.9375C22.584 29.25 23.204 29.5068 23.6611 29.9639C24.1182 30.421 24.375 31.041 24.375 31.6875V33.3125C24.375 33.959 24.1182 34.579 23.6611 35.0361C23.204 35.4932 22.584 35.75 21.9375 35.75H20.3125C19.666 35.75 19.046 35.4932 18.5889 35.0361C18.1318 34.579 17.875 33.959 17.875 33.3125V31.6875ZM20.3125 30.875C20.097 30.875 19.8903 30.9606 19.738 31.113C19.5856 31.2653 19.5 31.472 19.5 31.6875V33.3125C19.5 33.528 19.5856 33.7347 19.738 33.887C19.8903 34.0394 20.097 34.125 20.3125 34.125H21.9375C22.153 34.125 22.3597 34.0394 22.512 33.887C22.6644 33.7347 22.75 33.528 22.75 33.3125V31.6875C22.75 31.472 22.6644 31.2653 22.512 31.113C22.3597 30.9606 22.153 30.875 21.9375 30.875H20.3125ZM27.625 31.6875C27.625 31.041 27.8818 30.421 28.3389 29.9639C28.796 29.5068 29.416 29.25 30.0625 29.25H31.6875C32.334 29.25 32.954 29.5068 33.4111 29.9639C33.8682 30.421 34.125 31.041 34.125 31.6875V33.3125C34.125 33.959 33.8682 34.579 33.4111 35.0361C32.954 35.4932 32.334 35.75 31.6875 35.75H30.0625C29.416 35.75 28.796 35.4932 28.3389 35.0361C27.8818 34.579 27.625 33.959 27.625 33.3125V31.6875ZM30.0625 30.875C29.847 30.875 29.6403 30.9606 29.488 31.113C29.3356 31.2653 29.25 31.472 29.25 31.6875V33.3125C29.25 33.528 29.3356 33.7347 29.488 33.887C29.6403 34.0394 29.847 34.125 30.0625 34.125H31.6875C31.903 34.125 32.1097 34.0394 32.262 33.887C32.4144 33.7347 32.5 33.528 32.5 33.3125V31.6875C32.5 31.472 32.4144 31.2653 32.262 31.113C32.1097 30.9606 31.903 30.875 31.6875 30.875H30.0625Z" fill="#FFA500"/>
</g>
<defs>
<clipPath id="clip0_729_1009">
<rect width="26" height="26" fill="white" transform="translate(13 13)"/>
</clipPath>
</defs>
</svg>
