<svg width="58" height="58" viewBox="0 0 58 58" fill="none" xmlns="http://www.w3.org/2000/svg">
<path d="M26.9191 54.3735C27.8963 55.349 29.4806 55.349 30.4578 54.3735L42.1276 42.7246L53.7974 31.0756C54.7746 30.1001 54.7746 28.5186 53.7974 27.5432L30.5777 4.36488C29.6005 3.38943 28.0162 3.38943 27.039 4.36487L3.69943 27.6629C2.72225 28.6383 2.72225 30.2198 3.69943 31.1952L26.9191 54.3735Z" fill="#FEDE00" fill-opacity="0.2" stroke="#FEDE00" stroke-width="3"/>
<path d="M26.5148 36.0652L27.1129 39.5338C26.7426 39.7328 26.1445 39.9176 25.347 40.0882C24.5353 40.273 23.5811 40.3725 22.4846 40.3725C19.3373 40.3157 16.9733 39.3774 15.3925 37.5863C13.769 35.7809 13 33.4921 13 30.7201C13.057 27.4363 14.0254 24.9201 15.9052 23.1573C17.728 21.3804 20.0636 20.4706 22.8833 20.4706C23.9514 20.4706 24.8771 20.5701 25.6461 20.7407C26.4151 20.9113 26.9847 21.0961 27.355 21.3093L26.5005 24.849L25.0195 24.3657C24.4498 24.2235 23.7805 24.1524 23.0257 24.1524C21.388 24.1382 20.0208 24.6642 18.9528 25.7162C17.8704 26.7539 17.3293 28.3461 17.2723 30.4642C17.2866 32.3975 17.7992 33.9044 18.8104 35.0132C19.8215 36.1078 21.2313 36.6765 23.0684 36.6907L24.9625 36.5201C25.5749 36.4064 26.0875 36.25 26.5148 36.0652Z" fill="#FEDE00"/>
<path d="M34.9997 30.6653H31.6663V33.9986C31.6663 34.1754 31.5961 34.345 31.4711 34.47C31.3461 34.5951 31.1765 34.6653 30.9997 34.6653C30.8229 34.6653 30.6533 34.5951 30.5283 34.47C30.4032 34.345 30.333 34.1754 30.333 33.9986V30.6653H26.9997C26.8229 30.6653 26.6533 30.5951 26.5283 30.47C26.4032 30.345 26.333 30.1754 26.333 29.9986C26.333 29.8218 26.4032 29.6523 26.5283 29.5272C26.6533 29.4022 26.8229 29.332 26.9997 29.332H30.333V25.9986C30.333 25.8218 30.4032 25.6523 30.5283 25.5272C30.6533 25.4022 30.8229 25.332 30.9997 25.332C31.1765 25.332 31.3461 25.4022 31.4711 25.5272C31.5961 25.6523 31.6663 25.8218 31.6663 25.9986V29.332H34.9997C35.1765 29.332 35.3461 29.4022 35.4711 29.5272C35.5961 29.6523 35.6663 29.8218 35.6663 29.9986C35.6663 30.1754 35.5961 30.345 35.4711 30.47C35.3461 30.5951 35.1765 30.6653 34.9997 30.6653Z" fill="#FEDE00"/>
<path d="M45.9997 30.6653H42.6663V33.9986C42.6663 34.1754 42.5961 34.345 42.4711 34.47C42.3461 34.5951 42.1765 34.6653 41.9997 34.6653C41.8229 34.6653 41.6533 34.5951 41.5283 34.47C41.4032 34.345 41.333 34.1754 41.333 33.9986V30.6653H37.9997C37.8229 30.6653 37.6533 30.5951 37.5283 30.47C37.4032 30.345 37.333 30.1754 37.333 29.9986C37.333 29.8218 37.4032 29.6523 37.5283 29.5272C37.6533 29.4022 37.8229 29.332 37.9997 29.332H41.333V25.9986C41.333 25.8218 41.4032 25.6523 41.5283 25.5272C41.6533 25.4022 41.8229 25.332 41.9997 25.332C42.1765 25.332 42.3461 25.4022 42.4711 25.5272C42.5961 25.6523 42.6663 25.8218 42.6663 25.9986V29.332H45.9997C46.1765 29.332 46.3461 29.4022 46.4711 29.5272C46.5961 29.6523 46.6663 29.8218 46.6663 29.9986C46.6663 30.1754 46.5961 30.345 46.4711 30.47C46.3461 30.5951 46.1765 30.6653 45.9997 30.6653Z" fill="#FEDE00"/>
</svg>
