<svg width="52" height="52" viewBox="0 0 52 52" fill="none" xmlns="http://www.w3.org/2000/svg">
<path d="M27.7634 49.4828C26.7119 50.2467 25.2881 50.2467 24.2366 49.4828L4.21146 34.9336C3.16 34.1697 2.72002 32.8156 3.12164 31.5795L10.7706 8.03851C11.1722 6.80244 12.3241 5.96556 13.6238 5.96556L38.3762 5.96556C39.6759 5.96556 40.8278 6.80244 41.2294 8.03851L48.8784 31.5795C49.28 32.8156 48.84 34.1697 47.7885 34.9336L27.7634 49.4828Z" fill="#FFA500" fill-opacity="0.2" stroke="#FFA500" stroke-width="2"/>
<path d="M24.851 31.8552L25.4198 35.1594C25.0677 35.349 24.499 35.525 23.7406 35.6875C22.9688 35.8635 22.0615 35.9583 21.0188 35.9583C18.026 35.9042 15.7781 35.0104 14.275 33.3042C12.7312 31.5844 12 29.4042 12 26.7635C12.0542 23.6354 12.975 21.2385 14.7625 19.5594C16.4958 17.8667 18.7167 17 21.3979 17C22.4135 17 23.2938 17.0948 24.025 17.2573C24.7563 17.4198 25.2979 17.5958 25.65 17.799L24.8375 21.1708L23.4292 20.7104C22.8875 20.575 22.251 20.5073 21.5333 20.5073C19.976 20.4938 18.676 20.9948 17.6604 21.9969C16.6313 22.9854 16.1167 24.5021 16.0625 26.5198C16.076 28.3615 16.5635 29.7969 17.525 30.8531C18.4865 31.8958 19.8271 32.4375 21.574 32.451L23.375 32.2885C23.9573 32.1802 24.4448 32.0312 24.851 31.8552Z" fill="#FFA500"/>
<path d="M32.9997 26.6653H29.6663V29.9986C29.6663 30.1754 29.5961 30.345 29.4711 30.47C29.3461 30.5951 29.1765 30.6653 28.9997 30.6653C28.8229 30.6653 28.6533 30.5951 28.5283 30.47C28.4032 30.345 28.333 30.1754 28.333 29.9986V26.6653H24.9997C24.8229 26.6653 24.6533 26.5951 24.5283 26.47C24.4032 26.345 24.333 26.1754 24.333 25.9986C24.333 25.8218 24.4032 25.6523 24.5283 25.5272C24.6533 25.4022 24.8229 25.332 24.9997 25.332H28.333V21.9986C28.333 21.8218 28.4032 21.6523 28.5283 21.5272C28.6533 21.4022 28.8229 21.332 28.9997 21.332C29.1765 21.332 29.3461 21.4022 29.4711 21.5272C29.5961 21.6523 29.6663 21.8218 29.6663 21.9986V25.332H32.9997C33.1765 25.332 33.3461 25.4022 33.4711 25.5272C33.5961 25.6523 33.6663 25.8218 33.6663 25.9986C33.6663 26.1754 33.5961 26.345 33.4711 26.47C33.3461 26.5951 33.1765 26.6653 32.9997 26.6653Z" fill="#FFA500"/>
<path d="M42.9997 26.6653H39.6663V29.9986C39.6663 30.1754 39.5961 30.345 39.4711 30.47C39.3461 30.5951 39.1765 30.6653 38.9997 30.6653C38.8229 30.6653 38.6533 30.5951 38.5283 30.47C38.4032 30.345 38.333 30.1754 38.333 29.9986V26.6653H34.9997C34.8229 26.6653 34.6533 26.5951 34.5283 26.47C34.4032 26.345 34.333 26.1754 34.333 25.9986C34.333 25.8218 34.4032 25.6523 34.5283 25.5272C34.6533 25.4022 34.8229 25.332 34.9997 25.332H38.333V21.9986C38.333 21.8218 38.4032 21.6523 38.5283 21.5272C38.6533 21.4022 38.8229 21.332 38.9997 21.332C39.1765 21.332 39.3461 21.4022 39.4711 21.5272C39.5961 21.6523 39.6663 21.8218 39.6663 21.9986V25.332H42.9997C43.1765 25.332 43.3461 25.4022 43.4711 25.5272C43.5961 25.6523 43.6663 25.8218 43.6663 25.9986C43.6663 26.1754 43.5961 26.345 43.4711 26.47C43.3461 26.5951 43.1765 26.6653 42.9997 26.6653Z" fill="#FFA500"/>
</svg>
