<svg width="56" height="45" viewBox="0 0 56 45" fill="none" xmlns="http://www.w3.org/2000/svg">
<path d="M54.5 22.5C54.5 33.8084 42.9584 43.5 28 43.5C13.0416 43.5 1.5 33.8084 1.5 22.5C1.5 11.1916 13.0416 1.5 28 1.5C42.9584 1.5 54.5 11.1916 54.5 22.5Z" fill="#2BC672" fill-opacity="0.2" stroke="#2BC672" stroke-width="3"/>
<path d="M24.9278 28.3975C24.9278 28.3975 24.0339 28.9176 25.5647 29.0931C27.4194 29.305 28.3673 29.2746 30.4106 28.8884C30.4106 28.8884 30.9489 29.225 31.6993 29.5167C27.117 31.4798 21.3291 29.4029 24.9278 28.3975ZM24.3675 25.8353C24.3675 25.8353 23.3648 26.5776 24.8968 26.7363C26.8781 26.9408 28.4424 26.9575 31.1507 26.4363C31.1507 26.4363 31.5244 26.816 32.1129 27.0233C26.5738 28.6433 20.4043 27.1508 24.3675 25.8353Z" fill="#0074BD"/>
<path d="M29.088 21.4883C30.2177 22.7886 28.7917 23.9577 28.7917 23.9577C28.7917 23.9577 31.6584 22.4781 30.3422 20.6245C29.1123 18.8967 28.1696 18.0385 33.2737 15.0782C33.2737 15.0784 25.2617 17.0789 29.088 21.4883Z" fill="#EA2D2E"/>
<path d="M35.148 30.2929C35.148 30.2929 35.8096 30.8386 34.419 31.2602C31.7748 32.0612 23.4116 32.3027 21.0888 31.2923C20.2543 30.9289 21.8199 30.4251 22.3125 30.3188C22.826 30.2076 23.1193 30.2279 23.1193 30.2279C22.1906 29.5741 17.1168 31.5122 20.5425 32.0682C29.8839 33.5824 37.5706 31.3862 35.148 30.2929ZM25.3584 23.1801C25.3584 23.1801 21.1048 24.1906 23.8522 24.5579C25.0125 24.7131 27.3243 24.6775 29.4793 24.4967C31.2399 24.3488 33.0067 24.0329 33.0067 24.0329C33.0067 24.0329 32.3865 24.2989 31.9372 24.6053C27.6168 25.7417 19.2727 25.2124 21.6751 24.0507C23.7061 23.0684 25.3584 23.1801 25.3584 23.1801ZM32.9891 27.4452C37.3805 25.1639 35.3499 22.9714 33.9326 23.2667C33.5861 23.3389 33.4306 23.4017 33.4306 23.4017C33.4306 23.4017 33.5596 23.1994 33.8056 23.1124C36.6093 22.1271 38.7652 26.0192 32.9013 27.5609C32.9013 27.5605 32.9686 27.4996 32.9891 27.4452Z" fill="#0074BD"/>
<path d="M30.342 10.2975C30.342 10.2975 32.7735 12.7305 28.0352 16.4706C24.2353 19.4717 27.1688 21.1825 28.0339 23.1379C25.8156 21.1367 24.1885 19.3748 25.2799 17.7351C26.8827 15.3287 31.3228 14.1615 30.342 10.2975Z" fill="#EA2D2E"/>
<path d="M25.7903 33.6289C30.0045 33.8984 36.4778 33.4789 36.6309 31.4847C36.6309 31.4847 36.3364 32.2407 33.1478 32.8405C29.5504 33.5177 25.1126 33.4388 22.4814 33.0044C22.4814 33.0046 23.0205 33.4508 25.7903 33.6289Z" fill="#0074BD"/>
</svg>
