<svg width="58" height="58" viewBox="0 0 58 58" fill="none" xmlns="http://www.w3.org/2000/svg">
<path d="M26.9191 54.3735C27.8963 55.349 29.4806 55.349 30.4578 54.3735L42.1276 42.7246L53.7974 31.0756C54.7746 30.1001 54.7746 28.5186 53.7974 27.5432L30.5777 4.36488C29.6005 3.38943 28.0162 3.38943 27.039 4.36487L3.69943 27.6629C2.72225 28.6383 2.72225 30.2198 3.69943 31.1952L26.9191 54.3735Z" fill="#FEDE00" fill-opacity="0.2" stroke="#FEDE00" stroke-width="3"/>
<path d="M25.9278 35.3975C25.9278 35.3975 25.0339 35.9176 26.5647 36.0931C28.4194 36.305 29.3673 36.2746 31.4106 35.8884C31.4106 35.8884 31.9489 36.225 32.6993 36.5167C28.117 38.4798 22.3291 36.4029 25.9278 35.3975ZM25.3675 32.8353C25.3675 32.8353 24.3648 33.5776 25.8968 33.7363C27.8781 33.9408 29.4424 33.9575 32.1507 33.4363C32.1507 33.4363 32.5244 33.816 33.1129 34.0233C27.5738 35.6433 21.4043 34.1508 25.3675 32.8353Z" fill="#0074BD"/>
<path d="M30.088 28.4883C31.2177 29.7886 29.7917 30.9577 29.7917 30.9577C29.7917 30.9577 32.6584 29.4781 31.3422 27.6245C30.1123 25.8967 29.1696 25.0385 34.2737 22.0782C34.2737 22.0784 26.2617 24.0789 30.088 28.4883Z" fill="#EA2D2E"/>
<path d="M36.148 37.2929C36.148 37.2929 36.8096 37.8386 35.419 38.2602C32.7748 39.0612 24.4116 39.3027 22.0888 38.2923C21.2543 37.9289 22.8199 37.4251 23.3125 37.3188C23.826 37.2076 24.1193 37.2279 24.1193 37.2279C23.1906 36.5741 18.1168 38.5122 21.5425 39.0682C30.8839 40.5824 38.5706 38.3862 36.148 37.2929ZM26.3584 30.1801C26.3584 30.1801 22.1048 31.1906 24.8522 31.5579C26.0125 31.7131 28.3243 31.6775 30.4793 31.4967C32.2399 31.3488 34.0067 31.0329 34.0067 31.0329C34.0067 31.0329 33.3865 31.2989 32.9372 31.6053C28.6168 32.7417 20.2727 32.2124 22.6751 31.0507C24.7061 30.0684 26.3584 30.1801 26.3584 30.1801ZM33.9891 34.4452C38.3805 32.1639 36.3499 29.9714 34.9326 30.2667C34.5861 30.3389 34.4306 30.4017 34.4306 30.4017C34.4306 30.4017 34.5596 30.1994 34.8056 30.1124C37.6093 29.1271 39.7652 33.0192 33.9013 34.5609C33.9013 34.5605 33.9686 34.4996 33.9891 34.4452Z" fill="#0074BD"/>
<path d="M31.342 17.2975C31.342 17.2975 33.7735 19.7305 29.0352 23.4706C25.2353 26.4717 28.1688 28.1825 29.0339 30.1379C26.8156 28.1367 25.1885 26.3748 26.2799 24.7351C27.8827 22.3287 32.3228 21.1615 31.342 17.2975Z" fill="#EA2D2E"/>
<path d="M26.7903 40.6289C31.0045 40.8984 37.4778 40.4789 37.6309 38.4847C37.6309 38.4847 37.3364 39.2407 34.1478 39.8405C30.5504 40.5177 26.1126 40.4388 23.4814 40.0044C23.4814 40.0046 24.0205 40.4508 26.7903 40.6289Z" fill="#0074BD"/>
</svg>
