<svg width="56" height="45" viewBox="0 0 56 45" fill="none" xmlns="http://www.w3.org/2000/svg">
<path d="M54.5 22.5C54.5 33.8084 42.9584 43.5 28 43.5C13.0416 43.5 1.5 33.8084 1.5 22.5C1.5 11.1916 13.0416 1.5 28 1.5C42.9584 1.5 54.5 11.1916 54.5 22.5Z" fill="#2BC672" fill-opacity="0.2" stroke="#2BC672" stroke-width="3"/>
<g clip-path="url(#clip0_729_983)">
<path fill-rule="evenodd" clip-rule="evenodd" d="M24.75 14.6875C24.75 14.041 25.0068 13.421 25.4639 12.9639C25.921 12.5068 26.541 12.25 27.1875 12.25H28.8125C29.459 12.25 30.079 12.5068 30.5361 12.9639C30.9932 13.421 31.25 14.041 31.25 14.6875V16.3125C31.25 16.959 30.9932 17.579 30.5361 18.0361C30.079 18.4932 29.459 18.75 28.8125 18.75V20.375H32.875C33.0905 20.375 33.2972 20.4606 33.4495 20.613C33.6019 20.7653 33.6875 20.972 33.6875 21.1875V22.8125C33.6875 23.028 33.6019 23.2347 33.4495 23.387C33.2972 23.5394 33.0905 23.625 32.875 23.625C32.6595 23.625 32.4528 23.5394 32.3005 23.387C32.1481 23.2347 32.0625 23.028 32.0625 22.8125V22H23.9375V22.8125C23.9375 23.028 23.8519 23.2347 23.6995 23.387C23.5472 23.5394 23.3405 23.625 23.125 23.625C22.9095 23.625 22.7028 23.5394 22.5505 23.387C22.3981 23.2347 22.3125 23.028 22.3125 22.8125V21.1875C22.3125 20.972 22.3981 20.7653 22.5505 20.613C22.7028 20.4606 22.9095 20.375 23.125 20.375H27.1875V18.75C26.541 18.75 25.921 18.4932 25.4639 18.0361C25.0068 17.579 24.75 16.959 24.75 16.3125V14.6875ZM28.8125 17.125C29.028 17.125 29.2347 17.0394 29.387 16.887C29.5394 16.7347 29.625 16.528 29.625 16.3125V14.6875C29.625 14.472 29.5394 14.2653 29.387 14.113C29.2347 13.9606 29.028 13.875 28.8125 13.875H27.1875C26.972 13.875 26.7653 13.9606 26.613 14.113C26.4606 14.2653 26.375 14.472 26.375 14.6875V16.3125C26.375 16.528 26.4606 16.7347 26.613 16.887C26.7653 17.0394 26.972 17.125 27.1875 17.125H28.8125ZM19.875 27.6875C19.875 27.041 20.1318 26.421 20.5889 25.9639C21.046 25.5068 21.666 25.25 22.3125 25.25H23.9375C24.584 25.25 25.204 25.5068 25.6611 25.9639C26.1182 26.421 26.375 27.041 26.375 27.6875V29.3125C26.375 29.959 26.1182 30.579 25.6611 31.0361C25.204 31.4932 24.584 31.75 23.9375 31.75H22.3125C21.666 31.75 21.046 31.4932 20.5889 31.0361C20.1318 30.579 19.875 29.959 19.875 29.3125V27.6875ZM22.3125 26.875C22.097 26.875 21.8903 26.9606 21.738 27.113C21.5856 27.2653 21.5 27.472 21.5 27.6875V29.3125C21.5 29.528 21.5856 29.7347 21.738 29.887C21.8903 30.0394 22.097 30.125 22.3125 30.125H23.9375C24.153 30.125 24.3597 30.0394 24.512 29.887C24.6644 29.7347 24.75 29.528 24.75 29.3125V27.6875C24.75 27.472 24.6644 27.2653 24.512 27.113C24.3597 26.9606 24.153 26.875 23.9375 26.875H22.3125ZM29.625 27.6875C29.625 27.041 29.8818 26.421 30.3389 25.9639C30.796 25.5068 31.416 25.25 32.0625 25.25H33.6875C34.334 25.25 34.954 25.5068 35.4111 25.9639C35.8682 26.421 36.125 27.041 36.125 27.6875V29.3125C36.125 29.959 35.8682 30.579 35.4111 31.0361C34.954 31.4932 34.334 31.75 33.6875 31.75H32.0625C31.416 31.75 30.796 31.4932 30.3389 31.0361C29.8818 30.579 29.625 29.959 29.625 29.3125V27.6875ZM32.0625 26.875C31.847 26.875 31.6403 26.9606 31.488 27.113C31.3356 27.2653 31.25 27.472 31.25 27.6875V29.3125C31.25 29.528 31.3356 29.7347 31.488 29.887C31.6403 30.0394 31.847 30.125 32.0625 30.125H33.6875C33.903 30.125 34.1097 30.0394 34.262 29.887C34.4144 29.7347 34.5 29.528 34.5 29.3125V27.6875C34.5 27.472 34.4144 27.2653 34.262 27.113C34.1097 26.9606 33.903 26.875 33.6875 26.875H32.0625Z" fill="#2BC672"/>
</g>
<defs>
<clipPath id="clip0_729_983">
<rect width="26" height="26" fill="white" transform="translate(15 9)"/>
</clipPath>
</defs>
</svg>
