<svg width="68" height="68" viewBox="0 0 68 68" fill="none" xmlns="http://www.w3.org/2000/svg">
<path d="M36.143 57.85C35.1808 59.5166 32.7752 59.5166 31.8129 57.85L9.29626 18.85C8.33401 17.1833 9.53682 15.1 11.4613 15.1L56.4947 15.1C58.4192 15.1 59.622 17.1833 58.6597 18.85L36.143 57.85Z" fill="#FF2395" fill-opacity="0.2" stroke="#FF2395" stroke-width="3"/>
<path d="M30.9278 37.3975C30.9278 37.3975 30.0339 37.9176 31.5647 38.0931C33.4194 38.305 34.3673 38.2746 36.4106 37.8884C36.4106 37.8884 36.9489 38.225 37.6993 38.5167C33.117 40.4798 27.3291 38.4029 30.9278 37.3975ZM30.3675 34.8353C30.3675 34.8353 29.3648 35.5776 30.8968 35.7363C32.8781 35.9408 34.4424 35.9575 37.1507 35.4363C37.1507 35.4363 37.5244 35.816 38.1129 36.0233C32.5738 37.6433 26.4043 36.1508 30.3675 34.8353Z" fill="#0074BD"/>
<path d="M35.088 30.4883C36.2177 31.7886 34.7917 32.9577 34.7917 32.9577C34.7917 32.9577 37.6584 31.4781 36.3422 29.6245C35.1123 27.8967 34.1696 27.0385 39.2737 24.0782C39.2737 24.0784 31.2617 26.0789 35.088 30.4883Z" fill="#EA2D2E"/>
<path d="M41.148 39.2929C41.148 39.2929 41.8096 39.8386 40.419 40.2602C37.7748 41.0612 29.4116 41.3027 27.0888 40.2923C26.2543 39.9289 27.8199 39.4251 28.3125 39.3188C28.826 39.2076 29.1193 39.2279 29.1193 39.2279C28.1906 38.5741 23.1168 40.5122 26.5425 41.0682C35.8839 42.5824 43.5706 40.3862 41.148 39.2929ZM31.3584 32.1801C31.3584 32.1801 27.1048 33.1906 29.8522 33.5579C31.0125 33.7131 33.3243 33.6775 35.4793 33.4967C37.2399 33.3488 39.0067 33.0329 39.0067 33.0329C39.0067 33.0329 38.3865 33.2989 37.9372 33.6053C33.6168 34.7417 25.2727 34.2124 27.6751 33.0507C29.7061 32.0684 31.3584 32.1801 31.3584 32.1801ZM38.9891 36.4452C43.3805 34.1639 41.3499 31.9714 39.9326 32.2667C39.5861 32.3389 39.4306 32.4017 39.4306 32.4017C39.4306 32.4017 39.5596 32.1994 39.8056 32.1124C42.6093 31.1271 44.7652 35.0192 38.9013 36.5609C38.9013 36.5605 38.9686 36.4996 38.9891 36.4452Z" fill="#0074BD"/>
<path d="M36.342 19.2975C36.342 19.2975 38.7735 21.7305 34.0352 25.4706C30.2353 28.4717 33.1688 30.1825 34.0339 32.1379C31.8156 30.1367 30.1885 28.3748 31.2799 26.7351C32.8827 24.3287 37.3228 23.1615 36.342 19.2975Z" fill="#EA2D2E"/>
<path d="M31.7903 42.6289C36.0045 42.8984 42.4778 42.4789 42.6309 40.4847C42.6309 40.4847 42.3364 41.2407 39.1478 41.8405C35.5504 42.5177 31.1126 42.4388 28.4814 42.0044C28.4814 42.0046 29.0205 42.4508 31.7903 42.6289Z" fill="#0074BD"/>
</svg>
