<svg width="52" height="52" viewBox="0 0 52 52" fill="none" xmlns="http://www.w3.org/2000/svg">
<path d="M27.7634 49.4828C26.7119 50.2467 25.2881 50.2467 24.2366 49.4828L4.21146 34.9336C3.16 34.1697 2.72002 32.8156 3.12164 31.5795L10.7706 8.03851C11.1722 6.80244 12.3241 5.96556 13.6238 5.96556L38.3762 5.96556C39.6759 5.96556 40.8278 6.80244 41.2294 8.03851L48.8784 31.5795C49.28 32.8156 48.84 34.1697 47.7885 34.9336L27.7634 49.4828Z" fill="#FFA500" fill-opacity="0.2" stroke="#FFA500" stroke-width="2"/>
<path d="M22.9278 32.3975C22.9278 32.3975 22.0339 32.9176 23.5647 33.0931C25.4194 33.305 26.3673 33.2746 28.4106 32.8884C28.4106 32.8884 28.9489 33.225 29.6993 33.5167C25.117 35.4798 19.3291 33.4029 22.9278 32.3975ZM22.3675 29.8353C22.3675 29.8353 21.3648 30.5776 22.8968 30.7363C24.8781 30.9408 26.4424 30.9575 29.1507 30.4363C29.1507 30.4363 29.5244 30.816 30.1129 31.0233C24.5738 32.6433 18.4043 31.1508 22.3675 29.8353Z" fill="#0074BD"/>
<path d="M27.088 25.4883C28.2177 26.7886 26.7917 27.9577 26.7917 27.9577C26.7917 27.9577 29.6584 26.4781 28.3422 24.6245C27.1123 22.8967 26.1696 22.0385 31.2737 19.0782C31.2737 19.0784 23.2617 21.0789 27.088 25.4883Z" fill="#EA2D2E"/>
<path d="M33.148 34.2929C33.148 34.2929 33.8096 34.8386 32.419 35.2602C29.7748 36.0612 21.4116 36.3027 19.0888 35.2923C18.2543 34.9289 19.8199 34.4251 20.3125 34.3188C20.826 34.2076 21.1193 34.2279 21.1193 34.2279C20.1906 33.5741 15.1168 35.5122 18.5425 36.0682C27.8839 37.5824 35.5706 35.3862 33.148 34.2929ZM23.3584 27.1801C23.3584 27.1801 19.1048 28.1906 21.8522 28.5579C23.0125 28.7131 25.3243 28.6775 27.4793 28.4967C29.2399 28.3488 31.0067 28.0329 31.0067 28.0329C31.0067 28.0329 30.3865 28.2989 29.9372 28.6053C25.6168 29.7417 17.2727 29.2124 19.6751 28.0507C21.7061 27.0684 23.3584 27.1801 23.3584 27.1801ZM30.9891 31.4452C35.3805 29.1639 33.3499 26.9714 31.9326 27.2667C31.5861 27.3389 31.4306 27.4017 31.4306 27.4017C31.4306 27.4017 31.5596 27.1994 31.8056 27.1124C34.6093 26.1271 36.7652 30.0192 30.9013 31.5609C30.9013 31.5605 30.9686 31.4996 30.9891 31.4452Z" fill="#0074BD"/>
<path d="M28.342 14.2975C28.342 14.2975 30.7735 16.7305 26.0352 20.4706C22.2353 23.4717 25.1688 25.1825 26.0339 27.1379C23.8156 25.1367 22.1885 23.3748 23.2799 21.7351C24.8827 19.3287 29.3228 18.1615 28.342 14.2975Z" fill="#EA2D2E"/>
<path d="M23.7903 37.6289C28.0045 37.8984 34.4778 37.4789 34.6309 35.4847C34.6309 35.4847 34.3364 36.2407 31.1478 36.8405C27.5504 37.5177 23.1126 37.4388 20.4814 37.0044C20.4814 37.0046 21.0205 37.4508 23.7903 37.6289Z" fill="#0074BD"/>
</svg>
