<svg width="68" height="68" viewBox="0 0 68 68" fill="none" xmlns="http://www.w3.org/2000/svg">
<path d="M36.143 57.85C35.1808 59.5166 32.7752 59.5166 31.8129 57.85L9.29626 18.85C8.33401 17.1833 9.53682 15.1 11.4613 15.1L56.4947 15.1C58.4192 15.1 59.622 17.1833 58.6597 18.85L36.143 57.85Z" fill="#FF2395" fill-opacity="0.2" stroke="#FF2395" stroke-width="3"/>
<path d="M37.5 33H35V35.5C35 35.6326 34.9473 35.7598 34.8536 35.8536C34.7598 35.9473 34.6326 36 34.5 36C34.3674 36 34.2402 35.9473 34.1464 35.8536C34.0527 35.7598 34 35.6326 34 35.5V33H31.5C31.3674 33 31.2402 32.9473 31.1464 32.8536C31.0527 32.7598 31 32.6326 31 32.5C31 32.3674 31.0527 32.2402 31.1464 32.1464C31.2402 32.0527 31.3674 32 31.5 32H34V29.5C34 29.3674 34.0527 29.2402 34.1464 29.1464C34.2402 29.0527 34.3674 29 34.5 29C34.6326 29 34.7598 29.0527 34.8536 29.1464C34.9473 29.2402 35 29.3674 35 29.5V32H37.5C37.6326 32 37.7598 32.0527 37.8536 32.1464C37.9473 32.2402 38 32.3674 38 32.5C38 32.6326 37.9473 32.7598 37.8536 32.8536C37.7598 32.9473 37.6326 33 37.5 33Z" fill="#FF2395"/>
<path d="M45.5 33H43V35.5C43 35.6326 42.9473 35.7598 42.8536 35.8536C42.7598 35.9473 42.6326 36 42.5 36C42.3674 36 42.2402 35.9473 42.1464 35.8536C42.0527 35.7598 42 35.6326 42 35.5V33H39.5C39.3674 33 39.2402 32.9473 39.1464 32.8536C39.0527 32.7598 39 32.6326 39 32.5C39 32.3674 39.0527 32.2402 39.1464 32.1464C39.2402 32.0527 39.3674 32 39.5 32H42V29.5C42 29.3674 42.0527 29.2402 42.1464 29.1464C42.2402 29.0527 42.3674 29 42.5 29C42.6326 29 42.7598 29.0527 42.8536 29.1464C42.9473 29.2402 43 29.3674 43 29.5V32H45.5C45.6326 32 45.7598 32.0527 45.8536 32.1464C45.9473 32.2402 46 32.3674 46 32.5C46 32.6326 45.9473 32.7598 45.8536 32.8536C45.7598 32.9473 45.6326 33 45.5 33Z" fill="#FF2395"/>
<path d="M30.4147 35.97L30.8313 38.41C30.5734 38.55 30.1567 38.68 29.6012 38.8C29.0357 38.93 28.371 39 27.6071 39C25.4147 38.96 23.7679 38.3 22.6667 37.04C21.5357 35.77 21 34.16 21 32.21C21.0397 29.9 21.7143 28.13 23.0238 26.89C24.2937 25.64 25.9206 25 27.8849 25C28.629 25 29.2738 25.07 29.8095 25.19C30.3452 25.31 30.7421 25.44 31 25.59L30.4048 28.08L29.373 27.74C28.9762 27.64 28.5099 27.59 27.9841 27.59C26.8433 27.58 25.8909 27.95 25.1468 28.69C24.3929 29.42 24.0159 30.54 23.9762 32.03C23.9861 33.39 24.3433 34.45 25.0476 35.23C25.752 36 26.7341 36.4 28.0139 36.41L29.3333 36.29C29.7599 36.21 30.1171 36.1 30.4147 35.97Z" fill="#FF2395"/>
</svg>
