<svg width="68" height="68" viewBox="0 0 68 68" fill="none" xmlns="http://www.w3.org/2000/svg">
<path d="M36.143 57.85C35.1808 59.5166 32.7752 59.5166 31.8129 57.85L9.29626 18.85C8.33401 17.1833 9.53682 15.1 11.4613 15.1L56.4947 15.1C58.4192 15.1 59.622 17.1833 58.6597 18.85L36.143 57.85Z" fill="#FF2395" fill-opacity="0.2" stroke="#FF2395" stroke-width="3"/>
<path d="M40.4442 36.5408L41.0392 39.9975C40.6708 40.1958 40.0758 40.38 39.2825 40.55C38.475 40.7342 37.5258 40.8333 36.435 40.8333C33.3042 40.7767 30.9525 39.8417 29.38 38.0567C27.765 36.2575 27 33.9767 27 31.2142C27.0567 27.9417 28.02 25.4342 29.89 23.6775C31.7033 21.9067 34.0267 21 36.8317 21C37.8942 21 38.815 21.0992 39.58 21.2692C40.345 21.4392 40.9117 21.6233 41.28 21.8358L40.43 25.3633L38.9567 24.8817C38.39 24.74 37.7242 24.6692 36.9733 24.6692C35.3442 24.655 33.9842 25.1792 32.9217 26.2275C31.845 27.2617 31.3067 28.8483 31.25 30.9592C31.2642 32.8858 31.7742 34.3875 32.78 35.4925C33.7858 36.5833 35.1883 37.15 37.0158 37.1642L38.9 36.9942C39.5092 36.8808 40.0192 36.725 40.4442 36.5408Z" fill="#FF2395"/>
</svg>
