<svg width="48" height="48" viewBox="0 0 48 48" fill="none" xmlns="http://www.w3.org/2000/svg">
<path d="M29.2629 28.7125L29.7879 31.7625C29.4629 31.9375 28.9379 32.1 28.2379 32.25C27.5254 32.4125 26.6879 32.5 25.7254 32.5C22.9629 32.45 20.8879 31.625 19.5004 30.05C18.0754 28.4625 17.4004 26.45 17.4004 24.0125C17.4504 21.125 18.3004 18.9125 19.9504 17.3625C21.5504 15.8 23.6004 15 26.0754 15C27.0129 15 27.8254 15.0875 28.5004 15.2375C29.1754 15.3875 29.6754 15.55 30.0004 15.7375L29.2504 18.85L27.9504 18.425C27.4504 18.3 26.8629 18.2375 26.2004 18.2375C24.7629 18.225 23.5629 18.6875 22.6254 19.6125C21.6754 20.525 21.2004 21.925 21.1504 23.7875C21.1629 25.4875 21.6129 26.8125 22.5004 27.7875C23.3879 28.75 24.6254 29.25 26.2379 29.2625L27.9004 29.1125C28.4379 29.0125 28.8879 28.875 29.2629 28.7125Z" fill="#3949AB"/>
<circle cx="24" cy="24" r="22.5" fill="#3949AB" fill-opacity="0.2" stroke="#3949AB" stroke-width="3"/>
</svg>
