<svg width="50" height="51" viewBox="0 0 50 51" fill="none" xmlns="http://www.w3.org/2000/svg">
<path d="M4.84937 13.5811L25 1.73982L45.1506 13.5811V37.3097L25 49.151L4.84937 37.3097V13.5811Z" fill="white" stroke="#6241C0" stroke-width="3"/>
<g clip-path="url(#clip0_722_979)">
<path fill-rule="evenodd" clip-rule="evenodd" d="M21.634 17.7384C21.634 17.057 21.8999 16.4036 22.3733 15.9218C22.8466 15.44 23.4886 15.1694 24.1581 15.1694H25.8407C26.5102 15.1694 27.1522 15.44 27.6255 15.9218C28.0989 16.4036 28.3648 17.057 28.3648 17.7384V19.451C28.3648 20.1324 28.0989 20.7858 27.6255 21.2676C27.1522 21.7494 26.5102 22.0201 25.8407 22.0201V23.7327H30.0475C30.2706 23.7327 30.4846 23.8229 30.6424 23.9835C30.8002 24.1441 30.8888 24.3619 30.8888 24.5891V26.3017C30.8888 26.5288 30.8002 26.7467 30.6424 26.9073C30.4846 27.0678 30.2706 27.1581 30.0475 27.1581C29.8243 27.1581 29.6103 27.0678 29.4526 26.9073C29.2948 26.7467 29.2061 26.5288 29.2061 26.3017V25.4454H20.7927V26.3017C20.7927 26.5288 20.704 26.7467 20.5462 26.9073C20.3885 27.0678 20.1745 27.1581 19.9513 27.1581C19.7282 27.1581 19.5142 27.0678 19.3564 26.9073C19.1986 26.7467 19.11 26.5288 19.11 26.3017V24.5891C19.11 24.3619 19.1986 24.1441 19.3564 23.9835C19.5142 23.8229 19.7282 23.7327 19.9513 23.7327H24.1581V22.0201C23.4886 22.0201 22.8466 21.7494 22.3733 21.2676C21.8999 20.7858 21.634 20.1324 21.634 19.451V17.7384ZM25.8407 20.3074C26.0639 20.3074 26.2779 20.2172 26.4357 20.0566C26.5935 19.896 26.6821 19.6782 26.6821 19.451V17.7384C26.6821 17.5113 26.5935 17.2935 26.4357 17.1329C26.2779 16.9723 26.0639 16.882 25.8407 16.882H24.1581C23.9349 16.882 23.7209 16.9723 23.5631 17.1329C23.4053 17.2935 23.3167 17.5113 23.3167 17.7384V19.451C23.3167 19.6782 23.4053 19.896 23.5631 20.0566C23.7209 20.2172 23.9349 20.3074 24.1581 20.3074H25.8407ZM16.5859 31.4397C16.5859 30.7584 16.8519 30.105 17.3252 29.6232C17.7986 29.1414 18.4406 28.8707 19.11 28.8707H20.7927C21.4621 28.8707 22.1041 29.1414 22.5774 29.6232C23.0508 30.105 23.3167 30.7584 23.3167 31.4397V33.1524C23.3167 33.8338 23.0508 34.4872 22.5774 34.969C22.1041 35.4508 21.4621 35.7214 20.7927 35.7214H19.11C18.4406 35.7214 17.7986 35.4508 17.3252 34.969C16.8519 34.4872 16.5859 33.8338 16.5859 33.1524V31.4397ZM19.11 30.5834C18.8868 30.5834 18.6728 30.6736 18.5151 30.8342C18.3573 30.9948 18.2686 31.2126 18.2686 31.4397V33.1524C18.2686 33.3795 18.3573 33.5973 18.5151 33.7579C18.6728 33.9185 18.8868 34.0088 19.11 34.0088H20.7927C21.0158 34.0088 21.2298 33.9185 21.3876 33.7579C21.5454 33.5973 21.634 33.3795 21.634 33.1524V31.4397C21.634 31.2126 21.5454 30.9948 21.3876 30.8342C21.2298 30.6736 21.0158 30.5834 20.7927 30.5834H19.11ZM26.6821 31.4397C26.6821 30.7584 26.948 30.105 27.4214 29.6232C27.8947 29.1414 28.5367 28.8707 29.2061 28.8707H30.8888C31.5582 28.8707 32.2002 29.1414 32.6736 29.6232C33.1469 30.105 33.4129 30.7584 33.4129 31.4397V33.1524C33.4129 33.8338 33.1469 34.4872 32.6736 34.969C32.2002 35.4508 31.5582 35.7214 30.8888 35.7214H29.2061C28.5367 35.7214 27.8947 35.4508 27.4214 34.969C26.948 34.4872 26.6821 33.8338 26.6821 33.1524V31.4397ZM29.2061 30.5834C28.983 30.5834 28.769 30.6736 28.6112 30.8342C28.4534 30.9948 28.3648 31.2126 28.3648 31.4397V33.1524C28.3648 33.3795 28.4534 33.5973 28.6112 33.7579C28.769 33.9185 28.983 34.0088 29.2061 34.0088H30.8888C31.112 34.0088 31.326 33.9185 31.4837 33.7579C31.6415 33.5973 31.7302 33.3795 31.7302 33.1524V31.4397C31.7302 31.2126 31.6415 30.9948 31.4837 30.8342C31.326 30.6736 31.112 30.5834 30.8888 30.5834H29.2061Z" fill="#6241C0"/>
</g>
<defs>
<clipPath id="clip0_722_979">
<rect width="26.9231" height="27.4027" fill="white" transform="translate(11.5381 11.744)"/>
</clipPath>
</defs>
</svg>
