<svg width="48" height="48" viewBox="0 0 48 48" fill="none" xmlns="http://www.w3.org/2000/svg">
<path d="M19.8625 28.7125L20.3875 31.7625C20.0625 31.9375 19.5375 32.1 18.8375 32.25C18.125 32.4125 17.2875 32.5 16.325 32.5C13.5625 32.45 11.4875 31.625 10.1 30.05C8.675 28.4625 8 26.45 8 24.0125C8.05 21.125 8.9 18.9125 10.55 17.3625C12.15 15.8 14.2 15 16.675 15C17.6125 15 18.425 15.0875 19.1 15.2375C19.775 15.3875 20.275 15.55 20.6 15.7375L19.85 18.85L18.55 18.425C18.05 18.3 17.4625 18.2375 16.8 18.2375C15.3625 18.225 14.1625 18.6875 13.225 19.6125C12.275 20.525 11.8 21.925 11.75 23.7875C11.7625 25.4875 12.2125 26.8125 13.1 27.7875C13.9875 28.75 15.225 29.25 16.8375 29.2625L18.5 29.1125C19.0375 29.0125 19.4875 28.875 19.8625 28.7125Z" fill="#3949AB"/>
<circle cx="24" cy="24" r="22.5" fill="#3949AB" fill-opacity="0.2" stroke="#3949AB" stroke-width="3"/>
<path d="M30.9997 24.6653H27.6663V27.9986C27.6663 28.1754 27.5961 28.345 27.4711 28.47C27.3461 28.5951 27.1765 28.6653 26.9997 28.6653C26.8229 28.6653 26.6533 28.5951 26.5283 28.47C26.4032 28.345 26.333 28.1754 26.333 27.9986V24.6653H22.9997C22.8229 24.6653 22.6533 24.5951 22.5283 24.47C22.4032 24.345 22.333 24.1754 22.333 23.9986C22.333 23.8218 22.4032 23.6523 22.5283 23.5272C22.6533 23.4022 22.8229 23.332 22.9997 23.332H26.333V19.9986C26.333 19.8218 26.4032 19.6523 26.5283 19.5272C26.6533 19.4022 26.8229 19.332 26.9997 19.332C27.1765 19.332 27.3461 19.4022 27.4711 19.5272C27.5961 19.6523 27.6663 19.8218 27.6663 19.9986V23.332H30.9997C31.1765 23.332 31.3461 23.4022 31.4711 23.5272C31.5961 23.6523 31.6663 23.8218 31.6663 23.9986C31.6663 24.1754 31.5961 24.345 31.4711 24.47C31.3461 24.5951 31.1765 24.6653 30.9997 24.6653Z" fill="#3949AB"/>
<path d="M41.9997 24.6653H38.6663V27.9986C38.6663 28.1754 38.5961 28.345 38.4711 28.47C38.3461 28.5951 38.1765 28.6653 37.9997 28.6653C37.8229 28.6653 37.6533 28.5951 37.5283 28.47C37.4032 28.345 37.333 28.1754 37.333 27.9986V24.6653H33.9997C33.8229 24.6653 33.6533 24.5951 33.5283 24.47C33.4032 24.345 33.333 24.1754 33.333 23.9986C33.333 23.8218 33.4032 23.6523 33.5283 23.5272C33.6533 23.4022 33.8229 23.332 33.9997 23.332H37.333V19.9986C37.333 19.8218 37.4032 19.6523 37.5283 19.5272C37.6533 19.4022 37.8229 19.332 37.9997 19.332C38.1765 19.332 38.3461 19.4022 38.4711 19.5272C38.5961 19.6523 38.6663 19.8218 38.6663 19.9986V23.332H41.9997C42.1765 23.332 42.3461 23.4022 42.4711 23.5272C42.5961 23.6523 42.6663 23.8218 42.6663 23.9986C42.6663 24.1754 42.5961 24.345 42.4711 24.47C42.3461 24.5951 42.1765 24.6653 41.9997 24.6653Z" fill="#3949AB"/>
</svg>
