<svg width="52" height="52" viewBox="0 0 52 52" fill="none" xmlns="http://www.w3.org/2000/svg">
<path d="M4.98334 13.866L26 1.73205L47.0167 13.866V38.134L26 50.2679L4.98334 38.134V13.866Z" fill="white" stroke="#FFA500" stroke-width="3"/>
<path d="M21.9043 34.53C21.9043 34.53 20.7126 35.2235 22.7536 35.4575C25.2266 35.74 26.4903 35.6995 29.2148 35.1845C29.2148 35.1845 29.9326 35.6333 30.9331 36.0223C24.8233 38.6398 17.1061 35.8705 21.9043 34.53ZM21.1573 31.1138C21.1573 31.1138 19.8203 32.1035 21.8631 32.315C24.5048 32.5878 26.5906 32.61 30.2016 31.915C30.2016 31.915 30.6998 32.4213 31.4846 32.6978C24.0991 34.8578 15.8731 32.8678 21.1573 31.1138Z" fill="#0074BD"/>
<path d="M27.4506 25.3177C28.9569 27.0515 27.0556 28.6102 27.0556 28.6102C27.0556 28.6102 30.8779 26.6375 29.1229 24.166C27.4831 21.8622 26.2261 20.718 33.0316 16.771C33.0316 16.7712 22.3489 19.4385 27.4506 25.3177Z" fill="#EA2D2E"/>
<path d="M35.5306 37.0572C35.5306 37.0572 36.4129 37.7847 34.5586 38.347C31.0331 39.415 19.8821 39.737 16.7851 38.3897C15.6724 37.9052 17.7599 37.2335 18.4166 37.0917C19.1014 36.9435 19.4924 36.9705 19.4924 36.9705C18.2541 36.0987 11.4891 38.683 16.0566 39.4242C28.5119 41.4432 38.7609 38.515 35.5306 37.0572ZM22.4779 27.5735C22.4779 27.5735 16.8064 28.9207 20.4696 29.4105C22.0166 29.6175 25.0991 29.57 27.9724 29.329C30.3199 29.1317 32.6756 28.7105 32.6756 28.7105C32.6756 28.7105 31.8486 29.0652 31.2496 29.4737C25.4891 30.989 14.3636 30.2832 17.5669 28.7342C20.2749 27.4245 22.4779 27.5735 22.4779 27.5735ZM32.6521 33.2602C38.5074 30.2185 35.7999 27.2952 33.9101 27.689C33.4481 27.7852 33.2409 27.869 33.2409 27.869C33.2409 27.869 33.4129 27.5992 33.7409 27.4832C37.4791 26.1695 40.3536 31.359 32.5351 33.4145C32.5351 33.414 32.6249 33.3327 32.6521 33.2602Z" fill="#0074BD"/>
<path d="M29.123 10.3967C29.123 10.3967 32.365 13.6407 26.0473 18.6275C20.9808 22.629 24.892 24.91 26.0455 27.5172C23.0878 24.849 20.9183 22.4997 22.3735 20.3135C24.5105 17.105 30.4308 15.5487 29.123 10.3967Z" fill="#EA2D2E"/>
<path d="M23.0534 41.5052C28.6724 41.8645 37.3034 41.3052 37.5076 38.6462C37.5076 38.6462 37.1149 39.6542 32.8634 40.454C28.0669 41.357 22.1499 41.2517 18.6416 40.6725C18.6416 40.6727 19.3604 41.2677 23.0534 41.5052Z" fill="#0074BD"/>
</svg>
