<svg width="52" height="52" viewBox="0 0 52 52" fill="none" xmlns="http://www.w3.org/2000/svg">
<path d="M4.98334 13.866L26 1.73205L47.0167 13.866V38.134L26 50.2679L4.98334 38.134V13.866Z" fill="white" stroke="#3949AB" stroke-width="3"/>
<path d="M31.1754 31.955L31.8054 35.615C31.4154 35.825 30.7854 36.02 29.9454 36.2C29.0904 36.395 28.0854 36.5 26.9304 36.5C23.6154 36.44 21.1254 35.45 19.4604 33.56C17.7504 31.655 16.9404 29.24 16.9404 26.315C17.0004 22.85 18.0204 20.195 20.0004 18.335C21.9204 16.46 24.3804 15.5 27.3504 15.5C28.4754 15.5 29.4504 15.605 30.2604 15.785C31.0704 15.965 31.6704 16.16 32.0604 16.385L31.1604 20.12L29.6004 19.61C29.0004 19.46 28.2954 19.385 27.5004 19.385C25.7754 19.37 24.3354 19.925 23.2104 21.035C22.0704 22.13 21.5004 23.81 21.4404 26.045C21.4554 28.085 21.9954 29.675 23.0604 30.845C24.1254 32 25.6104 32.6 27.5454 32.615L29.5404 32.435C30.1854 32.315 30.7254 32.15 31.1754 31.955Z" fill="#3949AB"/>
</svg>
