<svg width="56" height="45" viewBox="0 0 56 45" fill="none" xmlns="http://www.w3.org/2000/svg">
<path d="M24.286 27.4266L24.874 30.8578C24.51 31.0547 23.922 31.2375 23.138 31.4062C22.34 31.5891 21.402 31.6875 20.324 31.6875C17.23 31.6312 14.906 30.7031 13.352 28.9312C11.756 27.1453 11 24.8812 11 22.1391C11.056 18.8906 12.008 16.4016 13.856 14.6578C15.648 12.9 17.944 12 20.716 12C21.766 12 22.676 12.0984 23.432 12.2672C24.188 12.4359 24.748 12.6188 25.112 12.8297L24.272 16.3312L22.816 15.8531C22.256 15.7125 21.598 15.6422 20.856 15.6422C19.246 15.6281 17.902 16.1484 16.852 17.1891C15.788 18.2156 15.256 19.7906 15.2 21.8859C15.214 23.7984 15.718 25.2891 16.712 26.3859C17.706 27.4687 19.092 28.0312 20.898 28.0453L22.76 27.8766C23.362 27.7641 23.866 27.6094 24.286 27.4266Z" fill="#2BC672"/>
<path d="M54.5 22.5C54.5 33.8084 42.9584 43.5 28 43.5C13.0416 43.5 1.5 33.8084 1.5 22.5C1.5 11.1916 13.0416 1.5 28 1.5C42.9584 1.5 54.5 11.1916 54.5 22.5Z" fill="#2BC672" fill-opacity="0.2" stroke="#2BC672" stroke-width="3"/>
<path d="M34.9997 22.6653H31.6663V25.9986C31.6663 26.1754 31.5961 26.345 31.4711 26.47C31.3461 26.5951 31.1765 26.6653 30.9997 26.6653C30.8229 26.6653 30.6533 26.5951 30.5283 26.47C30.4032 26.345 30.333 26.1754 30.333 25.9986V22.6653H26.9997C26.8229 22.6653 26.6533 22.5951 26.5283 22.47C26.4032 22.345 26.333 22.1754 26.333 21.9986C26.333 21.8218 26.4032 21.6523 26.5283 21.5272C26.6533 21.4022 26.8229 21.332 26.9997 21.332H30.333V17.9986C30.333 17.8218 30.4032 17.6523 30.5283 17.5272C30.6533 17.4022 30.8229 17.332 30.9997 17.332C31.1765 17.332 31.3461 17.4022 31.4711 17.5272C31.5961 17.6523 31.6663 17.8218 31.6663 17.9986V21.332H34.9997C35.1765 21.332 35.3461 21.4022 35.4711 21.5272C35.5961 21.6523 35.6663 21.8218 35.6663 21.9986C35.6663 22.1754 35.5961 22.345 35.4711 22.47C35.3461 22.5951 35.1765 22.6653 34.9997 22.6653Z" fill="#2BC672"/>
<path d="M44.9997 22.6653H41.6663V25.9986C41.6663 26.1754 41.5961 26.345 41.4711 26.47C41.3461 26.5951 41.1765 26.6653 40.9997 26.6653C40.8229 26.6653 40.6533 26.5951 40.5283 26.47C40.4032 26.345 40.333 26.1754 40.333 25.9986V22.6653H36.9997C36.8229 22.6653 36.6533 22.5951 36.5283 22.47C36.4032 22.345 36.333 22.1754 36.333 21.9986C36.333 21.8218 36.4032 21.6523 36.5283 21.5272C36.6533 21.4022 36.8229 21.332 36.9997 21.332H40.333V17.9986C40.333 17.8218 40.4032 17.6523 40.5283 17.5272C40.6533 17.4022 40.8229 17.332 40.9997 17.332C41.1765 17.332 41.3461 17.4022 41.4711 17.5272C41.5961 17.6523 41.6663 17.8218 41.6663 17.9986V21.332H44.9997C45.1765 21.332 45.3461 21.4022 45.4711 21.5272C45.5961 21.6523 45.6663 21.8218 45.6663 21.9986C45.6663 22.1754 45.5961 22.345 45.4711 22.47C45.3461 22.5951 45.1765 22.6653 44.9997 22.6653Z" fill="#2BC672"/>
</svg>
