<svg width="58" height="58" viewBox="0 0 58 58" fill="none" xmlns="http://www.w3.org/2000/svg">
<path d="M26.9191 54.3735C27.8963 55.349 29.4806 55.349 30.4578 54.3735L42.1276 42.7246L53.7974 31.0756C54.7746 30.1001 54.7746 28.5186 53.7974 27.5432L30.5777 4.36488C29.6005 3.38943 28.0162 3.38943 27.039 4.36487L3.69943 27.6629C2.72225 28.6383 2.72225 30.2198 3.69943 31.1952L26.9191 54.3735Z" fill="#E7E73C" fill-opacity="0.2" stroke="#FEDE00" stroke-width="3"/>
<path d="M35.0577 36.0652L35.6559 39.5338C35.2856 39.7328 34.6875 39.9176 33.89 40.0882C33.0782 40.273 32.1241 40.3725 31.0275 40.3725C27.8802 40.3157 25.5162 39.3774 23.9355 37.5863C22.312 35.7809 21.543 33.4921 21.543 30.7201C21.5999 27.4363 22.5683 24.9201 24.4481 23.1573C26.271 21.3804 28.6065 20.4706 31.4263 20.4706C32.4944 20.4706 33.42 20.5701 34.189 20.7407C34.9581 20.9113 35.5277 21.0961 35.898 21.3093L35.0435 24.849L33.5624 24.3657C32.9928 24.2235 32.3235 24.1524 31.5687 24.1524C29.931 24.1382 28.5638 24.6642 27.4957 25.7162C26.4134 26.7539 25.8723 28.3461 25.8153 30.4642C25.8295 32.3975 26.3422 33.9044 27.3533 35.0132C28.3644 36.1078 29.7743 36.6765 31.6114 36.6907L33.5055 36.5201C34.1178 36.4064 34.6305 36.25 35.0577 36.0652Z" fill="#FEDE00"/>
</svg>
