<svg width="48" height="48" viewBox="0 0 48 48" fill="none" xmlns="http://www.w3.org/2000/svg">
<circle cx="24" cy="24" r="22.5" fill="#3949AB" fill-opacity="0.2" stroke="#3949AB" stroke-width="3"/>
<path d="M20.9278 30.3975C20.9278 30.3975 20.0339 30.9176 21.5647 31.0931C23.4194 31.305 24.3673 31.2746 26.4106 30.8884C26.4106 30.8884 26.9489 31.225 27.6993 31.5167C23.117 33.4798 17.3291 31.4029 20.9278 30.3975ZM20.3675 27.8353C20.3675 27.8353 19.3648 28.5776 20.8968 28.7363C22.8781 28.9408 24.4424 28.9575 27.1507 28.4363C27.1507 28.4363 27.5244 28.816 28.1129 29.0233C22.5738 30.6433 16.4043 29.1508 20.3675 27.8353Z" fill="#0074BD"/>
<path d="M25.088 23.4883C26.2177 24.7886 24.7917 25.9577 24.7917 25.9577C24.7917 25.9577 27.6584 24.4781 26.3422 22.6245C25.1123 20.8967 24.1696 20.0385 29.2737 17.0782C29.2737 17.0784 21.2617 19.0789 25.088 23.4883Z" fill="#EA2D2E"/>
<path d="M31.148 32.2929C31.148 32.2929 31.8096 32.8386 30.419 33.2602C27.7748 34.0612 19.4116 34.3027 17.0888 33.2923C16.2543 32.9289 17.8199 32.4251 18.3125 32.3188C18.826 32.2076 19.1193 32.2279 19.1193 32.2279C18.1906 31.5741 13.1168 33.5122 16.5425 34.0682C25.8839 35.5824 33.5706 33.3862 31.148 32.2929ZM21.3584 25.1801C21.3584 25.1801 17.1048 26.1906 19.8522 26.5579C21.0125 26.7131 23.3243 26.6775 25.4793 26.4967C27.2399 26.3488 29.0067 26.0329 29.0067 26.0329C29.0067 26.0329 28.3865 26.2989 27.9372 26.6053C23.6168 27.7417 15.2727 27.2124 17.6751 26.0507C19.7061 25.0684 21.3584 25.1801 21.3584 25.1801ZM28.9891 29.4452C33.3805 27.1639 31.3499 24.9714 29.9326 25.2667C29.5861 25.3389 29.4306 25.4017 29.4306 25.4017C29.4306 25.4017 29.5596 25.1994 29.8056 25.1124C32.6093 24.1271 34.7652 28.0192 28.9013 29.5609C28.9013 29.5605 28.9686 29.4996 28.9891 29.4452Z" fill="#0074BD"/>
<path d="M26.342 12.2975C26.342 12.2975 28.7735 14.7305 24.0352 18.4706C20.2353 21.4717 23.1688 23.1825 24.0339 25.1379C21.8156 23.1367 20.1885 21.3748 21.2799 19.7351C22.8827 17.3287 27.3228 16.1615 26.342 12.2975Z" fill="#EA2D2E"/>
<path d="M21.7903 35.6289C26.0045 35.8984 32.4778 35.4789 32.6309 33.4847C32.6309 33.4847 32.3364 34.2407 29.1478 34.8405C25.5504 35.5177 21.1126 35.4388 18.4814 35.0044C18.4814 35.0046 19.0205 35.4508 21.7903 35.6289Z" fill="#0074BD"/>
</svg>
