<svg width="56" height="45" viewBox="0 0 56 45" fill="none" xmlns="http://www.w3.org/2000/svg">
<path d="M34.0057 28.3641L34.5937 31.7953C34.2297 31.9922 33.6417 32.175 32.8577 32.3437C32.0597 32.5266 31.1217 32.625 30.0437 32.625C26.9497 32.5687 24.6257 31.6406 23.0717 29.8687C21.4757 28.0828 20.7197 25.8187 20.7197 23.0766C20.7757 19.8281 21.7277 17.3391 23.5757 15.5953C25.3677 13.8375 27.6637 12.9375 30.4357 12.9375C31.4857 12.9375 32.3957 13.0359 33.1517 13.2047C33.9077 13.3734 34.4677 13.5563 34.8317 13.7672L33.9917 17.2687L32.5357 16.7906C31.9757 16.65 31.3177 16.5797 30.5757 16.5797C28.9657 16.5656 27.6217 17.0859 26.5717 18.1266C25.5077 19.1531 24.9757 20.7281 24.9197 22.8234C24.9337 24.7359 25.4377 26.2266 26.4317 27.3234C27.4257 28.4062 28.8117 28.9687 30.6177 28.9828L32.4797 28.8141C33.0817 28.7016 33.5857 28.5469 34.0057 28.3641Z" fill="#2BC672"/>
<path d="M54.5 22.5C54.5 33.8084 42.9584 43.5 28 43.5C13.0416 43.5 1.5 33.8084 1.5 22.5C1.5 11.1916 13.0416 1.5 28 1.5C42.9584 1.5 54.5 11.1916 54.5 22.5Z" fill="#2BC672" fill-opacity="0.2" stroke="#2BC672" stroke-width="3"/>
</svg>
