<svg width="58" height="58" viewBox="0 0 58 58" fill="none" xmlns="http://www.w3.org/2000/svg">
<path d="M26.9191 54.3735C27.8963 55.349 29.4806 55.349 30.4578 54.3735L42.1276 42.7246L53.7974 31.0756C54.7746 30.1001 54.7746 28.5186 53.7974 27.5432L30.5777 4.36488C29.6005 3.38943 28.0162 3.38943 27.039 4.36487L3.69943 27.6629C2.72225 28.6383 2.72225 30.2198 3.69943 31.1952L26.9191 54.3735Z" fill="#E7E73C" fill-opacity="0.2" stroke="#FEDE00" stroke-width="3"/>
<g clip-path="url(#clip0_729_1002)">
<path fill-rule="evenodd" clip-rule="evenodd" d="M25.75 21.6875C25.75 21.041 26.0068 20.421 26.4639 19.9639C26.921 19.5068 27.541 19.25 28.1875 19.25H29.8125C30.459 19.25 31.079 19.5068 31.5361 19.9639C31.9932 20.421 32.25 21.041 32.25 21.6875V23.3125C32.25 23.959 31.9932 24.579 31.5361 25.0361C31.079 25.4932 30.459 25.75 29.8125 25.75V27.375H33.875C34.0905 27.375 34.2972 27.4606 34.4495 27.613C34.6019 27.7653 34.6875 27.972 34.6875 28.1875V29.8125C34.6875 30.028 34.6019 30.2347 34.4495 30.387C34.2972 30.5394 34.0905 30.625 33.875 30.625C33.6595 30.625 33.4528 30.5394 33.3005 30.387C33.1481 30.2347 33.0625 30.028 33.0625 29.8125V29H24.9375V29.8125C24.9375 30.028 24.8519 30.2347 24.6995 30.387C24.5472 30.5394 24.3405 30.625 24.125 30.625C23.9095 30.625 23.7028 30.5394 23.5505 30.387C23.3981 30.2347 23.3125 30.028 23.3125 29.8125V28.1875C23.3125 27.972 23.3981 27.7653 23.5505 27.613C23.7028 27.4606 23.9095 27.375 24.125 27.375H28.1875V25.75C27.541 25.75 26.921 25.4932 26.4639 25.0361C26.0068 24.579 25.75 23.959 25.75 23.3125V21.6875ZM29.8125 24.125C30.028 24.125 30.2347 24.0394 30.387 23.887C30.5394 23.7347 30.625 23.528 30.625 23.3125V21.6875C30.625 21.472 30.5394 21.2653 30.387 21.113C30.2347 20.9606 30.028 20.875 29.8125 20.875H28.1875C27.972 20.875 27.7653 20.9606 27.613 21.113C27.4606 21.2653 27.375 21.472 27.375 21.6875V23.3125C27.375 23.528 27.4606 23.7347 27.613 23.887C27.7653 24.0394 27.972 24.125 28.1875 24.125H29.8125ZM20.875 34.6875C20.875 34.041 21.1318 33.421 21.5889 32.9639C22.046 32.5068 22.666 32.25 23.3125 32.25H24.9375C25.584 32.25 26.204 32.5068 26.6611 32.9639C27.1182 33.421 27.375 34.041 27.375 34.6875V36.3125C27.375 36.959 27.1182 37.579 26.6611 38.0361C26.204 38.4932 25.584 38.75 24.9375 38.75H23.3125C22.666 38.75 22.046 38.4932 21.5889 38.0361C21.1318 37.579 20.875 36.959 20.875 36.3125V34.6875ZM23.3125 33.875C23.097 33.875 22.8903 33.9606 22.738 34.113C22.5856 34.2653 22.5 34.472 22.5 34.6875V36.3125C22.5 36.528 22.5856 36.7347 22.738 36.887C22.8903 37.0394 23.097 37.125 23.3125 37.125H24.9375C25.153 37.125 25.3597 37.0394 25.512 36.887C25.6644 36.7347 25.75 36.528 25.75 36.3125V34.6875C25.75 34.472 25.6644 34.2653 25.512 34.113C25.3597 33.9606 25.153 33.875 24.9375 33.875H23.3125ZM30.625 34.6875C30.625 34.041 30.8818 33.421 31.3389 32.9639C31.796 32.5068 32.416 32.25 33.0625 32.25H34.6875C35.334 32.25 35.954 32.5068 36.4111 32.9639C36.8682 33.421 37.125 34.041 37.125 34.6875V36.3125C37.125 36.959 36.8682 37.579 36.4111 38.0361C35.954 38.4932 35.334 38.75 34.6875 38.75H33.0625C32.416 38.75 31.796 38.4932 31.3389 38.0361C30.8818 37.579 30.625 36.959 30.625 36.3125V34.6875ZM33.0625 33.875C32.847 33.875 32.6403 33.9606 32.488 34.113C32.3356 34.2653 32.25 34.472 32.25 34.6875V36.3125C32.25 36.528 32.3356 36.7347 32.488 36.887C32.6403 37.0394 32.847 37.125 33.0625 37.125H34.6875C34.903 37.125 35.1097 37.0394 35.262 36.887C35.4144 36.7347 35.5 36.528 35.5 36.3125V34.6875C35.5 34.472 35.4144 34.2653 35.262 34.113C35.1097 33.9606 34.903 33.875 34.6875 33.875H33.0625Z" fill="#FEDE00"/>
</g>
<defs>
<clipPath id="clip0_729_1002">
<rect width="26" height="26" fill="white" transform="translate(16 16)"/>
</clipPath>
</defs>
</svg>
