<svg width="52" height="52" viewBox="0 0 52 52" fill="none" xmlns="http://www.w3.org/2000/svg">
<path d="M4.98334 13.866L26 1.73205L47.0167 13.866V38.134L26 50.2679L4.98334 38.134V13.866Z" fill="white" stroke="#00599C" stroke-width="3"/>
<path d="M24.3756 31.955L25.0056 35.615C24.6156 35.825 23.9856 36.02 23.1456 36.2C22.2906 36.395 21.2856 36.5 20.1306 36.5C16.8156 36.44 14.3256 35.45 12.6606 33.56C10.9506 31.655 10.1406 29.24 10.1406 26.315C10.2006 22.85 11.2206 20.195 13.2006 18.335C15.1206 16.46 17.5806 15.5 20.5506 15.5C21.6756 15.5 22.6506 15.605 23.4606 15.785C24.2706 15.965 24.8706 16.16 25.2606 16.385L24.3606 20.12L22.8006 19.61C22.2006 19.46 21.4956 19.385 20.7006 19.385C18.9756 19.37 17.5356 19.925 16.4106 21.035C15.2706 22.13 14.7006 23.81 14.6406 26.045C14.6556 28.085 15.1956 29.675 16.2606 30.845C17.3256 32 18.8106 32.6 20.7456 32.615L22.7406 32.435C23.3856 32.315 23.9256 32.15 24.3756 31.955Z" fill="#00599C"/>
<path d="M33.2009 26.5322H30.5342V29.1989C30.5342 29.3403 30.4781 29.476 30.378 29.576C30.278 29.676 30.1424 29.7322 30.0009 29.7322C29.8595 29.7322 29.7238 29.676 29.6238 29.576C29.5238 29.476 29.4676 29.3403 29.4676 29.1989V26.5322H26.8009C26.6595 26.5322 26.5238 26.476 26.4238 26.376C26.3238 26.276 26.2676 26.1403 26.2676 25.9989C26.2676 25.8574 26.3238 25.7218 26.4238 25.6218C26.5238 25.5218 26.6595 25.4656 26.8009 25.4656H29.4676V22.7989C29.4676 22.6574 29.5238 22.5218 29.6238 22.4218C29.7238 22.3218 29.8595 22.2656 30.0009 22.2656C30.1424 22.2656 30.278 22.3218 30.378 22.4218C30.4781 22.5218 30.5342 22.6574 30.5342 22.7989V25.4656H33.2009C33.3424 25.4656 33.478 25.5218 33.578 25.6218C33.6781 25.7218 33.7342 25.8574 33.7342 25.9989C33.7342 26.1403 33.6781 26.276 33.578 26.376C33.478 26.476 33.3424 26.5322 33.2009 26.5322Z" fill="#00599C"/>
<path d="M42.4001 26.5322H39.7335V29.1989C39.7335 29.3403 39.6773 29.476 39.5773 29.576C39.4772 29.676 39.3416 29.7322 39.2001 29.7322C39.0587 29.7322 38.923 29.676 38.823 29.576C38.723 29.476 38.6668 29.3403 38.6668 29.1989V26.5322H36.0001C35.8587 26.5322 35.723 26.476 35.623 26.376C35.523 26.276 35.4668 26.1403 35.4668 25.9989C35.4668 25.8574 35.523 25.7218 35.623 25.6218C35.723 25.5218 35.8587 25.4656 36.0001 25.4656H38.6668V22.7989C38.6668 22.6574 38.723 22.5218 38.823 22.4218C38.923 22.3218 39.0587 22.2656 39.2001 22.2656C39.3416 22.2656 39.4772 22.3218 39.5773 22.4218C39.6773 22.5218 39.7335 22.6574 39.7335 22.7989V25.4656H42.4001C42.5416 25.4656 42.6772 25.5218 42.7773 25.6218C42.8773 25.7218 42.9335 25.8574 42.9335 25.9989C42.9335 26.1403 42.8773 26.276 42.7773 26.376C42.6772 26.476 42.5416 26.5322 42.4001 26.5322Z" fill="#00599C"/>
</svg>
