<svg width="68" height="68" viewBox="0 0 68 68" fill="none" xmlns="http://www.w3.org/2000/svg">
<path d="M36.143 57.85C35.1808 59.5166 32.7752 59.5166 31.8129 57.85L9.29626 18.85C8.33401 17.1833 9.53682 15.1 11.4613 15.1L56.4947 15.1C58.4192 15.1 59.622 17.1833 58.6597 18.85L36.143 57.85Z" fill="#FF2395" fill-opacity="0.2" stroke="#FF2395" stroke-width="3"/>
<g clip-path="url(#clip0_729_990)">
<path fill-rule="evenodd" clip-rule="evenodd" d="M30.75 23.6875C30.75 23.041 31.0068 22.421 31.4639 21.9639C31.921 21.5068 32.541 21.25 33.1875 21.25H34.8125C35.459 21.25 36.079 21.5068 36.5361 21.9639C36.9932 22.421 37.25 23.041 37.25 23.6875V25.3125C37.25 25.959 36.9932 26.579 36.5361 27.0361C36.079 27.4932 35.459 27.75 34.8125 27.75V29.375H38.875C39.0905 29.375 39.2972 29.4606 39.4495 29.613C39.6019 29.7653 39.6875 29.972 39.6875 30.1875V31.8125C39.6875 32.028 39.6019 32.2347 39.4495 32.387C39.2972 32.5394 39.0905 32.625 38.875 32.625C38.6595 32.625 38.4528 32.5394 38.3005 32.387C38.1481 32.2347 38.0625 32.028 38.0625 31.8125V31H29.9375V31.8125C29.9375 32.028 29.8519 32.2347 29.6995 32.387C29.5472 32.5394 29.3405 32.625 29.125 32.625C28.9095 32.625 28.7028 32.5394 28.5505 32.387C28.3981 32.2347 28.3125 32.028 28.3125 31.8125V30.1875C28.3125 29.972 28.3981 29.7653 28.5505 29.613C28.7028 29.4606 28.9095 29.375 29.125 29.375H33.1875V27.75C32.541 27.75 31.921 27.4932 31.4639 27.0361C31.0068 26.579 30.75 25.959 30.75 25.3125V23.6875ZM34.8125 26.125C35.028 26.125 35.2347 26.0394 35.387 25.887C35.5394 25.7347 35.625 25.528 35.625 25.3125V23.6875C35.625 23.472 35.5394 23.2653 35.387 23.113C35.2347 22.9606 35.028 22.875 34.8125 22.875H33.1875C32.972 22.875 32.7653 22.9606 32.613 23.113C32.4606 23.2653 32.375 23.472 32.375 23.6875V25.3125C32.375 25.528 32.4606 25.7347 32.613 25.887C32.7653 26.0394 32.972 26.125 33.1875 26.125H34.8125ZM25.875 36.6875C25.875 36.041 26.1318 35.421 26.5889 34.9639C27.046 34.5068 27.666 34.25 28.3125 34.25H29.9375C30.584 34.25 31.204 34.5068 31.6611 34.9639C32.1182 35.421 32.375 36.041 32.375 36.6875V38.3125C32.375 38.959 32.1182 39.579 31.6611 40.0361C31.204 40.4932 30.584 40.75 29.9375 40.75H28.3125C27.666 40.75 27.046 40.4932 26.5889 40.0361C26.1318 39.579 25.875 38.959 25.875 38.3125V36.6875ZM28.3125 35.875C28.097 35.875 27.8903 35.9606 27.738 36.113C27.5856 36.2653 27.5 36.472 27.5 36.6875V38.3125C27.5 38.528 27.5856 38.7347 27.738 38.887C27.8903 39.0394 28.097 39.125 28.3125 39.125H29.9375C30.153 39.125 30.3597 39.0394 30.512 38.887C30.6644 38.7347 30.75 38.528 30.75 38.3125V36.6875C30.75 36.472 30.6644 36.2653 30.512 36.113C30.3597 35.9606 30.153 35.875 29.9375 35.875H28.3125ZM35.625 36.6875C35.625 36.041 35.8818 35.421 36.3389 34.9639C36.796 34.5068 37.416 34.25 38.0625 34.25H39.6875C40.334 34.25 40.954 34.5068 41.4111 34.9639C41.8682 35.421 42.125 36.041 42.125 36.6875V38.3125C42.125 38.959 41.8682 39.579 41.4111 40.0361C40.954 40.4932 40.334 40.75 39.6875 40.75H38.0625C37.416 40.75 36.796 40.4932 36.3389 40.0361C35.8818 39.579 35.625 38.959 35.625 38.3125V36.6875ZM38.0625 35.875C37.847 35.875 37.6403 35.9606 37.488 36.113C37.3356 36.2653 37.25 36.472 37.25 36.6875V38.3125C37.25 38.528 37.3356 38.7347 37.488 38.887C37.6403 39.0394 37.847 39.125 38.0625 39.125H39.6875C39.903 39.125 40.1097 39.0394 40.262 38.887C40.4144 38.7347 40.5 38.528 40.5 38.3125V36.6875C40.5 36.472 40.4144 36.2653 40.262 36.113C40.1097 35.9606 39.903 35.875 39.6875 35.875H38.0625Z" fill="#FF2395"/>
</g>
<defs>
<clipPath id="clip0_729_990">
<rect width="26" height="26" fill="white" transform="translate(21 18)"/>
</clipPath>
</defs>
</svg>
