<svg width="52" height="52" viewBox="0 0 52 52" fill="none" xmlns="http://www.w3.org/2000/svg">
<path d="M27.7634 49.4828C26.7119 50.2467 25.2881 50.2467 24.2366 49.4828L4.21146 34.9336C3.16 34.1697 2.72002 32.8156 3.12164 31.5795L10.7706 8.03851C11.1722 6.80244 12.3241 5.96556 13.6238 5.96556L38.3762 5.96556C39.6759 5.96556 40.8278 6.80244 41.2294 8.03851L48.8784 31.5795C49.28 32.8156 48.84 34.1697 47.7885 34.9336L27.7634 49.4828Z" fill="#FFA500" fill-opacity="0.2" stroke="#FFA500" stroke-width="2"/>
<path d="M31.7007 31.1052L32.2694 34.4094C31.9173 34.599 31.3486 34.775 30.5902 34.9375C29.8184 35.1135 28.9111 35.2083 27.8684 35.2083C24.8757 35.1542 22.6277 34.2604 21.1246 32.5542C19.5809 30.8344 18.8496 28.6542 18.8496 26.0135C18.9038 22.8854 19.8246 20.4885 21.6121 18.8094C23.3454 17.1167 25.5663 16.25 28.2475 16.25C29.2632 16.25 30.1434 16.3448 30.8746 16.5073C31.6059 16.6698 32.1475 16.8458 32.4996 17.049L31.6871 20.4208L30.2788 19.9604C29.7371 19.825 29.1007 19.7573 28.3829 19.7573C26.8257 19.7438 25.5257 20.2448 24.51 21.2469C23.4809 22.2354 22.9663 23.7521 22.9121 25.7698C22.9257 27.6115 23.4132 29.0469 24.3746 30.1031C25.3361 31.1458 26.6767 31.6875 28.4236 31.701L30.2246 31.5385C30.8069 31.4302 31.2944 31.2812 31.7007 31.1052Z" fill="#FFA500"/>
</svg>
