<svg width="48" height="48" viewBox="0 0 48 48" fill="none" xmlns="http://www.w3.org/2000/svg">
<circle cx="24" cy="24" r="22.5" fill="#3949AB" fill-opacity="0.2" stroke="#3949AB" stroke-width="3"/>
<g clip-path="url(#clip0_318_1066)">
<path fill-rule="evenodd" clip-rule="evenodd" d="M20.125 15.9062C20.125 15.2349 20.3917 14.5911 20.8664 14.1164C21.3411 13.6417 21.9849 13.375 22.6562 13.375H24.3438C25.0151 13.375 25.6589 13.6417 26.1336 14.1164C26.6083 14.5911 26.875 15.2349 26.875 15.9062V17.5938C26.875 18.2651 26.6083 18.9089 26.1336 19.3836C25.6589 19.8583 25.0151 20.125 24.3438 20.125V21.8125H28.5625C28.7863 21.8125 29.0009 21.9014 29.1591 22.0596C29.3174 22.2179 29.4062 22.4325 29.4062 22.6562V24.3438C29.4062 24.5675 29.3174 24.7821 29.1591 24.9404C29.0009 25.0986 28.7863 25.1875 28.5625 25.1875C28.3387 25.1875 28.1241 25.0986 27.9659 24.9404C27.8076 24.7821 27.7188 24.5675 27.7188 24.3438V23.5H19.2812V24.3438C19.2812 24.5675 19.1924 24.7821 19.0341 24.9404C18.8759 25.0986 18.6613 25.1875 18.4375 25.1875C18.2137 25.1875 17.9991 25.0986 17.8409 24.9404C17.6826 24.7821 17.5938 24.5675 17.5938 24.3438V22.6562C17.5938 22.4325 17.6826 22.2179 17.8409 22.0596C17.9991 21.9014 18.2137 21.8125 18.4375 21.8125H22.6562V20.125C21.9849 20.125 21.3411 19.8583 20.8664 19.3836C20.3917 18.9089 20.125 18.2651 20.125 17.5938V15.9062ZM24.3438 18.4375C24.5675 18.4375 24.7821 18.3486 24.9404 18.1904C25.0986 18.0321 25.1875 17.8175 25.1875 17.5938V15.9062C25.1875 15.6825 25.0986 15.4679 24.9404 15.3096C24.7821 15.1514 24.5675 15.0625 24.3438 15.0625H22.6562C22.4325 15.0625 22.2179 15.1514 22.0596 15.3096C21.9014 15.4679 21.8125 15.6825 21.8125 15.9062V17.5938C21.8125 17.8175 21.9014 18.0321 22.0596 18.1904C22.2179 18.3486 22.4325 18.4375 22.6562 18.4375H24.3438ZM15.0625 29.4062C15.0625 28.7349 15.3292 28.0911 15.8039 27.6164C16.2786 27.1417 16.9224 26.875 17.5938 26.875H19.2812C19.9526 26.875 20.5964 27.1417 21.0711 27.6164C21.5458 28.0911 21.8125 28.7349 21.8125 29.4062V31.0938C21.8125 31.7651 21.5458 32.4089 21.0711 32.8836C20.5964 33.3583 19.9526 33.625 19.2812 33.625H17.5938C16.9224 33.625 16.2786 33.3583 15.8039 32.8836C15.3292 32.4089 15.0625 31.7651 15.0625 31.0938V29.4062ZM17.5938 28.5625C17.37 28.5625 17.1554 28.6514 16.9971 28.8096C16.8389 28.9679 16.75 29.1825 16.75 29.4062V31.0938C16.75 31.3175 16.8389 31.5321 16.9971 31.6904C17.1554 31.8486 17.37 31.9375 17.5938 31.9375H19.2812C19.505 31.9375 19.7196 31.8486 19.8779 31.6904C20.0361 31.5321 20.125 31.3175 20.125 31.0938V29.4062C20.125 29.1825 20.0361 28.9679 19.8779 28.8096C19.7196 28.6514 19.505 28.5625 19.2812 28.5625H17.5938ZM25.1875 29.4062C25.1875 28.7349 25.4542 28.0911 25.9289 27.6164C26.4036 27.1417 27.0474 26.875 27.7188 26.875H29.4062C30.0776 26.875 30.7214 27.1417 31.1961 27.6164C31.6708 28.0911 31.9375 28.7349 31.9375 29.4062V31.0938C31.9375 31.7651 31.6708 32.4089 31.1961 32.8836C30.7214 33.3583 30.0776 33.625 29.4062 33.625H27.7188C27.0474 33.625 26.4036 33.3583 25.9289 32.8836C25.4542 32.4089 25.1875 31.7651 25.1875 31.0938V29.4062ZM27.7188 28.5625C27.495 28.5625 27.2804 28.6514 27.1221 28.8096C26.9639 28.9679 26.875 29.1825 26.875 29.4062V31.0938C26.875 31.3175 26.9639 31.5321 27.1221 31.6904C27.2804 31.8486 27.495 31.9375 27.7188 31.9375H29.4062C29.63 31.9375 29.8446 31.8486 30.0029 31.6904C30.1611 31.5321 30.25 31.3175 30.25 31.0938V29.4062C30.25 29.1825 30.1611 28.9679 30.0029 28.8096C29.8446 28.6514 29.63 28.5625 29.4062 28.5625H27.7188Z" fill="#3949AB"/>
</g>
<defs>
<clipPath id="clip0_318_1066">
<rect width="27" height="27" fill="white" transform="translate(10 10)"/>
</clipPath>
</defs>
</svg>
